# xmcd
# Copyright (C) 1995-1998 Ti Kan
#
# Track frame offsets:
#       150
#       20093
#       42795
#       58303
#       75745
#       96064
#       116438
#       145802
#       164852
#       182275
#       198151
#
# Disc length: 3000 seconds
#
# Revision: 0
# Processed by: cddbd v1.5.2PL0 Copyright (c) Steve Scherf et al.
# Submitted via: CD-Import v1.0
#
DISCID=910bb60b
DTITLE=Bright - More In Every Day
DYEAR=09
DGENRE=
TTITLE0=Stay For A While
TTITLE1=More In Every Day
TTITLE2=Move On
TTITLE3=Today
TTITLE4=It's Not Your Life
TTITLE5=Greatest Gift
TTITLE6=The Brilliance
TTITLE7=Not An Easy Way
TTITLE8=It All Makes Sense Again
TTITLE9=2 Lifes Each Day
TTITLE10=20 Minutes
EXTD=
EXTT0=
EXTT1=
EXTT2=
EXTT3=
EXTT4=
EXTT5=
EXTT6=
EXTT7=
EXTT8=
EXTT9=
EXTT10=
PLAYORDER=
